<?xml version="1.0" encoding="UTF-8" standalone="no"?>
<!-- Created with Inkscape (http://www.inkscape.org/) -->

<svg
   xmlns:dc="http://purl.org/dc/elements/1.1/"
   xmlns:cc="http://creativecommons.org/ns#"
   xmlns:rdf="http://www.w3.org/1999/02/22-rdf-syntax-ns#"
   xmlns:svg="http://www.w3.org/2000/svg"
   xmlns="http://www.w3.org/2000/svg"
   version="1.1"
   width="128"
   height="128"
   id="svg35666">
  <defs
     id="defs35668" />
  <metadata
     id="metadata35671">
    <rdf:RDF>
      <cc:Work
         rdf:about="">
        <dc:format>image/svg+xml</dc:format>
        <dc:type
           rdf:resource="http://purl.org/dc/dcmitype/StillImage" />
        <dc:title></dc:title>
      </cc:Work>
    </rdf:RDF>
  </metadata>
  <g
     transform="translate(0,-924.36218)"
     id="layer1">
    <g
       transform="translate(-0.67149309,3.1290091)"
       id="g36466"
       style="fill:#ffffff;fill-opacity:1">
      <path
         d="M 76.738941,150.62537 A 63.857677,63.857677 0 1 1 151.68539,87.737831"
         transform="matrix(0.74807273,0.62770755,-0.62770755,0.74807273,54.044401,875.49658)"
         id="path35686"
         style="fill:#ffffff;fill-opacity:1;stroke:#000000;stroke-width:1.00047147;stroke-miterlimit:4;stroke-opacity:1;stroke-dasharray:none" />
      <path
         d="m 16.90203,111.98274 c 95.93289,0.47238 95.54038,0 95.54038,0 l 0,0"
         transform="translate(0,924.36218)"
         id="path36460"
         style="fill:#ffffff;fill-opacity:1;stroke:#000000;stroke-width:1px;stroke-linecap:butt;stroke-linejoin:round;stroke-opacity:1" />
    </g>
    <path
       d="m 73.903603,47.860779 a 12.240284,11.547438 0 1 1 -24.480568,0 12.240284,11.547438 0 1 1 24.480568,0 z"
       transform="matrix(0.2354192,0,0,0.24954436,49.483271,987.44579)"
       id="path36464"
       style="fill:#ffffff;fill-opacity:1;stroke:#000000;stroke-width:2.06288576;stroke-linejoin:round;stroke-miterlimit:4;stroke-opacity:1;stroke-dasharray:none" />
    <path
       d="M 62.65456,108.90395 A 38.258713,38.258713 0 1 1 113.92105,65.886257"
       transform="matrix(0.99541539,0.83525268,-0.83525268,0.99541539,48.86757,862.66741)"
       id="path36489"
       style="fill:none;stroke:#000000;stroke-width:0.977;stroke-linejoin:round;stroke-miterlimit:4;stroke-opacity:1;stroke-dasharray:none" />
    <path
       d="m 9.4859079,105.33107 11.0545011,-6.144888 0,0"
       transform="translate(0,924.36218)"
       id="path36538"
       style="fill:none;stroke:#000000;stroke-width:1px;stroke-linecap:butt;stroke-linejoin:miter;stroke-opacity:1" />
    <path
       d="m 107.46012,99.185234 11.0512,6.143046 0,0"
       transform="translate(0,924.36218)"
       id="path36540"
       style="fill:none;stroke:#000000;stroke-width:1px;stroke-linecap:butt;stroke-linejoin:miter;stroke-opacity:1" />
    <path
       d="m 64.109134,937.15569 c -0.284923,12.58152 -0.209126,12.58764 -0.209126,12.58764 l 0,0"
       id="path36542"
       style="fill:none;stroke:#000000;stroke-width:1px;stroke-linecap:butt;stroke-linejoin:miter;stroke-opacity:1" />
    <path
       d="m 105.56364,48.040396 c 10.19018,-7.807889 10.19018,-7.807889 10.19018,-7.807889"
       transform="translate(0,924.36218)"
       id="path36544"
       style="fill:none;stroke:#000000;stroke-width:1px;stroke-linecap:butt;stroke-linejoin:miter;stroke-opacity:1" />
    <path
       d="M 8.413645,101.87481 C 5.2098494,95.187718 3.295051,88.415493 2.5395205,81.09931 2.2299004,78.101105 2.2723378,71.541841 2.6217452,68.390383 3.9351068,56.544606 8.430451,45.694384 15.940245,36.244087 17.80058,33.903049 22.920147,28.812492 25.36119,26.876527 35.577096,18.774402 48.210668,13.945572 60.675708,13.378541 l 2.80292,-0.127504 0,2.010489 c 0,1.105769 -0.05907,3.641216 -0.131263,5.634328 l -0.131265,3.62384 -2.533899,0.115022 c -7.641231,0.346861 -15.740923,2.822209 -22.659679,6.925028 -13.507526,8.009955 -22.264933,21.419107 -24.340571,37.269752 -0.469043,3.581856 -0.311719,10.962425 0.308156,14.456581 0.862791,4.863434 2.360069,9.538185 4.352279,13.588544 0.594625,1.208932 1.059512,2.217278 1.033081,2.240769 -0.123098,0.109409 -9.206824,5.13073 -9.451499,5.22462 -0.1957262,0.0751 -0.6431287,-0.65516 -1.510323,-2.4652 l 0,0 z"
       transform="translate(0,924.36218)"
       id="path36548"
       style="fill:#04b629;fill-opacity:1;stroke:#00b629;stroke-width:0.5;stroke-linejoin:miter;stroke-miterlimit:4;stroke-opacity:1;stroke-dasharray:none" />
    <path
       d="M 105.52754,46.6373 C 104.58539,45.10373 102.0561,42.019983 99.988113,39.883563 94.182451,33.88577 87.330723,29.59116 79.457946,27.015419 75.212394,25.626398 69.401644,24.577706 65.950706,24.577706 l -1.530208,0 0.13197,-4.073176 c 0.07258,-2.240247 0.132208,-4.774668 0.132499,-5.632046 l 5.28e-4,-1.55887 1.257153,6.87e-4 c 4.310488,0.0024 11.174842,1.145842 16.217858,2.701619 12.520423,3.862569 23.694144,11.788896 31.501924,22.346579 0.60942,0.824064 1.10805,1.575697 1.10805,1.670293 0,0.0946 -0.7015,0.709011 -1.55887,1.365365 -8.10417,6.204027 -7.39031,5.717305 -7.68407,5.239143 z"
       transform="translate(0,924.36218)"
       id="path36550"
       style="fill:#f1b907;fill-opacity:1;stroke:#f1b907;stroke-width:0.5;stroke-linejoin:miter;stroke-miterlimit:4;stroke-opacity:1;stroke-dasharray:none" />
    <path
       d="m 113.13631,101.65017 -4.95305,-2.76324 0.60932,-1.200032 c 2.31606,-4.561406 4.02814,-10.0048 4.90087,-15.581865 0.50855,-3.24981 0.51275,-11.01842 0.008,-14.28126 -0.47189,-3.048751 -1.36967,-6.683867 -2.3717,-9.602974 -0.78696,-2.292551 -2.92832,-6.922911 -4.17612,-9.030198 -0.57197,-0.965945 -0.58942,-1.052871 -0.26874,-1.33858 0.81277,-0.724139 8.55668,-6.579322 8.70164,-6.579322 0.41107,0 3.84504,6.276991 5.22589,9.55246 3.28073,7.782141 4.84986,15.524551 4.87182,24.038672 0.0197,7.636718 -1.08578,14.124636 -3.59164,21.078976 -0.89972,2.496927 -3.64882,8.498463 -3.88437,8.479933 -0.0652,-0.005 -2.34746,-1.25279 -5.07164,-2.77257 l 0,0 z"
       transform="translate(0,924.36218)"
       id="path36552"
       style="fill:#cf0e0e;fill-opacity:1;stroke:#cf0e0e;stroke-width:0.5;stroke-linejoin:miter;stroke-miterlimit:4;stroke-opacity:1;stroke-dasharray:none" />
    <path
       d="m 50.827808,943.6535 11.880761,56.0157 2.51958,-0.50305"
       id="path36562"
       style="fill:#000000;fill-opacity:1;stroke:#000000;stroke-width:0.1;stroke-linecap:butt;stroke-linejoin:miter;stroke-miterlimit:4;stroke-opacity:1;stroke-dasharray:none" />
    <path
       d="M 58.039027,971.36563 z"
       id="path36562-0"
       style="fill:#000000;fill-opacity:1;stroke:#000000;stroke-width:0.1;stroke-linecap:butt;stroke-linejoin:miter;stroke-miterlimit:4;stroke-opacity:1;stroke-dasharray:none" />
  </g>
</svg>
